<?xml version="1.0" encoding="UTF-8"?>
<svg version="1.1" xmlns="http://www.w3.org/2000/svg" width="32" height="32">
<path d="M0 0 C1.29349365 0.00523682 2.5869873 0.01047363 3.91967773 0.01586914 C5.17594971 0.0183667 6.43222168 0.02086426 7.7265625 0.0234375 C9.33587646 0.0325415 10.94519043 0.04164551 12.60327148 0.05102539 C17.69764648 0.07165039 22.79202148 0.09227539 28.04077148 0.11352539 C28.04077148 10.67352539 28.04077148 21.23352539 28.04077148 32.11352539 C17.48077148 32.11352539 6.92077148 32.11352539 -3.95922852 32.11352539 C-3.97985352 27.01915039 -4.00047852 21.92477539 -4.02172852 16.67602539 C-4.03083252 15.06671143 -4.03993652 13.45739746 -4.04931641 11.79931641 C-4.05181396 10.54304443 -4.05431152 9.28677246 -4.05688477 7.99243164 C-4.06212158 6.69893799 -4.0673584 5.40544434 -4.07275391 4.07275391 C-3.9222827 0.1504712 -3.9222827 0.1504712 0 0 Z M6.04077148 6.11352539 C6.26764648 6.62915039 6.49452148 7.14477539 6.72827148 7.67602539 C7.04077148 10.11352539 7.04077148 10.11352539 5.54077148 13.42602539 C3.81332473 17.67266532 3.69895101 19.75260884 5.04077148 24.11352539 C8.03470101 26.93134141 9.61053358 27.12081756 13.72827148 27.05102539 C15.36795898 26.58696289 15.36795898 26.58696289 17.04077148 26.11352539 C17.70077148 24.79352539 18.36077148 23.47352539 19.04077148 22.11352539 C16.07077148 22.11352539 13.10077148 22.11352539 10.04077148 22.11352539 C10.04077148 18.81352539 10.04077148 15.51352539 10.04077148 12.11352539 C11.34014648 12.13415039 12.63952148 12.15477539 13.97827148 12.17602539 C15.33242782 12.19751994 16.68833231 12.18500738 18.04077148 12.11352539 C19.33710769 11.04707424 19.33710769 11.04707424 19.10327148 8.55102539 C19.08264648 7.74665039 19.06202148 6.94227539 19.04077148 6.11352539 C17.78264648 6.11352539 16.52452148 6.11352539 15.22827148 6.11352539 C12.16577148 6.11352539 9.10327148 6.11352539 6.04077148 6.11352539 Z " fill="#239CEB" transform="translate(3.959228515625,-0.113525390625)"/>
<path d="M0 0 C1.32 0.33 2.64 0.66 4 1 C4 4 4 4 2.9375 6.75 C1.81682128 10.63501955 1.9519567 13.10726773 3 17 C4.50803484 18.71465946 4.50803484 18.71465946 7 19 C9.7258985 18.84363871 12.29695634 18.45050728 15 18 C15 18.66 15 19.32 15 20 C11.17369543 21.80061392 8.22501011 22.52812626 4 22 C1.125 20 1.125 20 -1 18 C-1.33 20.31 -1.66 22.62 -2 25 C-3.65 25 -5.3 25 -7 25 C-7 23.02 -7 21.04 -7 19 C-5.68 19 -4.36 19 -3 19 C-2.67 17.35 -2.34 15.7 -2 14 C-1.34 14 -0.68 14 0 14 C-0.061875 12.39125 -0.061875 12.39125 -0.125 10.75 C-0.0114175 7.34252515 0.21273364 5.79260369 2 3 C1.01 3 0.02 3 -1 3 C-0.67 2.01 -0.34 1.02 0 0 Z " fill="#249BE6" transform="translate(7,7)"/>
<path d="M0 0 C0.99 0 1.98 0 3 0 C3 0.66 3 1.32 3 2 C4.98 2 6.96 2 9 2 C10.60725635 5.21451269 10.05748185 8.43612536 10 12 C9.01 12 8.02 12 7 12 C7 11.34 7 10.68 7 10 C6.01 10 5.02 10 4 10 C4 8.35 4 6.7 4 5 C2.68 4.67 1.36 4.34 0 4 C0 2.68 0 1.36 0 0 Z " fill="#33A5EE" transform="translate(22,20)"/>
<path d="M0 0 C2.64 0 5.28 0 8 0 C8.33 1.32 8.66 2.64 9 4 C8.34 4 7.68 4 7 4 C7 4.99 7 5.98 7 7 C4.69 6.67 2.38 6.34 0 6 C0 4.02 0 2.04 0 0 Z " fill="#1F9CEF" transform="translate(14,14)"/>
<path d="M0 0 C1.98 0.495 1.98 0.495 4 1 C4 4 4 4 3 6.75 C1.90108757 10.32146539 1.8514046 13.28511506 2 17 C1.34 16.67 0.68 16.34 0 16 C-0.05447047 14.58376784 -0.09300508 13.16691809 -0.125 11.75 C-0.14820313 10.96109375 -0.17140625 10.1721875 -0.1953125 9.359375 C0.0171622 6.79268059 0.71345895 5.2083933 2 3 C1.01 3 0.02 3 -1 3 C-0.67 2.01 -0.34 1.02 0 0 Z " fill="#3D9CDF" transform="translate(7,7)"/>
<path d="M0 0 C0.99 0.66 1.98 1.32 3 2 C2.34 4.31 1.68 6.62 1 9 C0.67 9 0.34 9 0 9 C-0.33 7.35 -0.66 5.7 -1 4 C-2.258125 4 -3.51625 4 -4.8125 4 C-7.20833333 4 -9.60416667 4 -12 4 C-12.66 3.34 -13.32 2.68 -14 2 C-13.07316406 1.93941406 -12.14632813 1.87882813 -11.19140625 1.81640625 C-9.39509766 1.69072266 -9.39509766 1.69072266 -7.5625 1.5625 C-5.77005859 1.44068359 -5.77005859 1.44068359 -3.94140625 1.31640625 C-1.11429756 1.32343886 -1.11429756 1.32343886 0 0 Z " fill="#3CA0E3" transform="translate(24,3)"/>
<path d="M0 0 C0.61488281 0.08378906 1.22976563 0.16757812 1.86328125 0.25390625 C3.07564453 0.40666016 3.07564453 0.40666016 4.3125 0.5625 C5.11300781 0.66691406 5.91351563 0.77132813 6.73828125 0.87890625 C9.16817116 1.14755178 9.16817116 1.14755178 12 0 C12 0.66 12 1.32 12 2 C8.17010894 3.80230168 5.21878192 4.19622241 1 4 C0.67 2.68 0.34 1.36 0 0 Z " fill="#3299DC" transform="translate(10,25)"/>
<path d="M0 0 C0 2.31 0 4.62 0 7 C-1.98 6.34 -3.96 5.68 -6 5 C-1.125 0 -1.125 0 0 0 Z " fill="#1E9BF2" transform="translate(32,17)"/>
<path d="M0 0 C2.475 0.495 2.475 0.495 5 1 C5 1.99 5 2.98 5 4 C3.35 4 1.7 4 0 4 C0 2.68 0 1.36 0 0 Z " fill="#37A4EE" transform="translate(0,28)"/>
<path d="M0 0 C0 0.66 0 1.32 0 2 C-1.32 1.67 -2.64 1.34 -4 1 C-2 0 -2 0 0 0 Z " fill="#5FA0CF" transform="translate(20,8)"/>
</svg>
